Coordinates
version=1
nRows=14
nColumns=40
inDegrees=yes

Units are S.I. units (second, meters, Newtons, ...)
Angles are in degrees.

endheader
time	pelvis_tilt	pelvis_list	pelvis_rotation	pelvis_tx	pelvis_ty	pelvis_tz	hip_flexion_r	hip_adduction_r	hip_rotation_r	knee_angle_r	knee_angle_r_beta	ankle_angle_r	subtalar_angle_r	mtp_angle_r	hip_flexion_l	hip_adduction_l	hip_rotation_l	knee_angle_l	knee_angle_l_beta	ankle_angle_l	subtalar_angle_l	mtp_angle_l	lumbar_extension	lumbar_bending	lumbar_rotation	arm_flex_r	arm_add_r	arm_rot_r	elbow_flex_r	pro_sup_r	wrist_flex_r	wrist_dev_r	arm_flex_l	arm_add_l	arm_rot_l	elbow_flex_l	pro_sup_l	wrist_flex_l	wrist_dev_l
      2.61000000	     -3.27021201	     -2.69030279	      0.87460498	      0.50318559	      0.88998685	      1.47010088	     16.43811164	      4.48471531	    -14.88922003	    -23.65268774	     -0.41281728	      7.07432713	     -4.78246344	      2.00867537	     20.05507244	      7.83604838	      8.05200623	    -67.87821766	     -1.18469839	      1.41637007	     18.82119723	     19.36138062	     -3.51155852	      2.80330702	     -3.43259750	      0.15596039	     -9.14422820	    -10.23203591	     27.82172773	     89.95437384	      0.00000000	      0.00000000	      2.32569970	      7.49619205	     15.52567970	     32.60074665	     89.95437384	      0.00000000	      0.00000000
      2.62000000	     -3.21733390	     -2.63425690	      0.81170248	      0.50905923	      0.89038049	      1.47093627	     15.88686005	      4.55511125	    -14.59239848	    -23.55162512	     -0.41105340	      7.55471640	     -4.64086697	      1.93092836	     20.86334431	      7.64584279	      7.84179227	    -68.02289226	     -1.18722344	      3.01280851	     18.76246051	     19.36653795	     -3.59102030	      2.77685393	     -3.27589816	      0.40674582	     -9.19979367	    -10.59021466	     28.09905172	     89.95437384	      0.00000000	      0.00000000	      2.11656084	      7.41308915	     15.75561311	     32.14199578	     89.95437384	      0.00000000	      0.00000000
      2.63000000	     -3.16406508	     -2.48773769	      0.72875453	      0.51478924	      0.89077519	      1.47174158	     15.39747384	      4.47636048	    -14.51078804	    -23.53718266	     -0.41080133	      7.84628250	     -4.54027968	      1.87232827	     21.71229779	      7.38690918	      7.77099027	    -68.02089038	     -1.18718850	      4.23432139	     18.67541606	     19.21098288	     -3.70101768	      2.64150903	     -3.11923535	      0.68612542	     -9.26233233	    -10.76202085	     28.34188697	     89.95437384	      0.00000000	      0.00000000	      1.87525424	      7.37834465	     15.85250370	     31.78320786	     89.95437384	      0.00000000	      0.00000000
      2.64000000	     -3.15052458	     -2.39228171	      0.65213724	      0.52051766	      0.89107314	      1.47261637	     14.94843001	      4.43738194	    -14.54075983	    -23.50869146	     -0.41030407	      8.07014143	     -4.46353321	      1.81377544	     22.54764993	      7.24023015	      7.69468241	    -67.76135500	     -1.18265875	      4.71992228	     18.64969453	     19.04777367	     -3.74235568	      2.54245749	     -2.96927217	      0.92930901	     -9.32454193	    -10.87816174	     28.63244416	     89.95437384	      0.00000000	      0.00000000	      1.57574289	      7.36437772	     15.89262704	     31.48992799	     89.95437384	      0.00000000	      0.00000000
      2.65000000	     -3.14527147	     -2.29519379	      0.60531508	      0.52625593	      0.89136942	      1.47335887	     14.45923524	      4.41332586	    -14.50211469	    -23.40222803	     -0.40844593	      8.36653308	     -4.36094312	      1.74057190	     23.36949049	      7.03398423	      7.54202174	    -67.35207730	     -1.17551551	      5.47885555	     18.64713022	     18.88190479	     -3.77220479	      2.45242897	     -2.83913767	      1.14506215	     -9.38013638	    -11.05828735	     28.94108468	     89.95437384	      0.00000000	      0.00000000	      1.33011982	      7.34505013	     15.93964882	     31.10648810	     89.95437384	      0.00000000	      0.00000000
      2.66000000	     -3.17521171	     -2.23456666	      0.55216577	      0.53184546	      0.89154383	      1.47416339	     14.06074394	      4.40549939	    -14.57696282	    -23.38026413	     -0.40806259	      8.54501232	     -4.29229230	      1.68445681	     24.21885833	      6.92775731	      7.48802058	    -66.79410260	     -1.16577701	      5.87072252	     18.62382119	     18.67066377	     -3.78540524	      2.40031849	     -2.70245631	      1.35641015	     -9.44069893	    -11.16015201	     29.29568961	     89.95437384	      0.00000000	      0.00000000	      1.02451130	      7.35109925	     15.95965886	     30.90196148	     89.95437384	      0.00000000	      0.00000000
      2.67000000	     -3.10373626	     -2.19191785	      0.63042619	      0.53748511	      0.89184991	      1.47463476	     13.40873105	      4.43579000	    -14.50161155	    -23.11442858	     -0.40342288	      9.00323973	     -4.03245196	      1.57814123	     24.94234884	      6.61770533	      7.06728135	    -66.12404540	     -1.15408231	      6.89982728	     18.64791814	     18.63092352	     -3.90157245	      2.37279502	     -2.61580156	      1.49035999	     -9.46765102	    -11.51832287	     29.79397551	     89.95437384	      0.00000000	      0.00000000	      0.89846345	      7.27715791	     16.13464190	     30.44872714	     89.95437384	      0.00000000	      0.00000000
      2.68000000	     -3.09930300	     -2.17323512	      0.63864080	      0.54315350	      0.89206064	      1.47527335	     12.85515853	      4.47384990	    -14.62813765	    -22.87306154	     -0.39921023	      9.25098628	     -3.82535600	      1.50040451	     25.68201173	      6.47699584	      6.87441574	    -65.26027845	     -1.13900673	      7.53688871	     18.67485233	     18.62580149	     -3.93646772	      2.35869313	     -2.48132410	      1.64323214	     -9.52087770	    -11.68995946	     30.18314857	     89.95437384	      0.00000000	      0.00000000	      0.67984903	      7.25147589	     16.18488025	     30.13113036	     89.95437384	      0.00000000	      0.00000000
      2.69000000	     -3.20424201	     -2.18016086	      0.54347433	      0.54875333	      0.89200286	      1.47606001	     12.51169690	      4.52726636	    -14.83679379	    -22.81304613	     -0.39816277	      9.38962955	     -3.77477461	      1.45367350	     26.51756249	      6.45571125	      6.84054093	    -64.25073497	     -1.12138687	      7.84723710	     18.67215911	     18.45145215	     -3.84527757	      2.36345697	     -2.27774666	      1.80792300	     -9.60154706	    -11.72420791	     30.53791933	     89.95437384	      0.00000000	      0.00000000	      0.33116830	      7.24836106	     16.20745186	     30.02243564	     89.95437384	      0.00000000	      0.00000000
      2.70000000	     -3.29296117	     -2.17195555	      0.52593162	      0.55433911	      0.89197525	      1.47665555	     12.11340709	      4.57092437	    -14.93745064	    -22.65359392	     -0.39537980	      9.61945959	     -3.67842138	      1.39019302	     27.29002968	      6.36464720	      6.70695366	    -63.12661532	     -1.10176728	      8.33608155	     18.72679758	     18.31043054	     -3.78016540	      2.35595910	     -2.11233813	      1.92697476	     -9.67995059	    -11.76795920	     30.96358920	     89.95437384	      0.00000000	      0.00000000	      0.06946815	      7.21690690	     16.25476534	     29.85857054	     89.95437384	      0.00000000	      0.00000000
      2.71000000	     -3.13904032	     -2.01899576	      0.63130034	      0.56000727	      0.89235657	      1.47679210	     11.34238131	      4.47205799	    -14.83258247	    -22.31602930	     -0.38948819	     10.08079006	     -3.38958569	      1.26694532	     27.71237925	      5.91525001	      6.40231913	    -61.79551849	     -1.07853526	      9.18613103	     18.77638228	     18.38302397	     -4.01444537	      2.21608037	     -1.98002323	      1.91801397	     -9.74337039	    -11.91142084	     31.65494371	     89.95437384	      0.00000000	      0.00000000	      0.02014813	      7.13196823	     16.52597599	     29.44053521	     89.95437384	      0.00000000	      0.00000000
      2.72000000	     -3.23561878	     -2.06228613	      0.59551429	      0.56549146	      0.89224680	      1.47739658	     11.03313078	      4.54945558	    -15.03787997	    -22.30161508	     -0.38923661	     10.24497696	     -3.35984210	      1.21302585	     28.45487619	      5.97644257	      6.46742249	    -60.38497284	     -1.05391659	      9.39922360	     18.77273347	     18.27697294	     -3.94350060	      2.25402474	     -1.82056194	      2.06594275	     -9.81525983	    -11.88989957	     32.03224601	     89.95437384	      0.00000000	      0.00000000	     -0.28951179	      7.12354017	     16.55705628	     29.37767051	     89.95437384	      0.00000000	      0.00000000
      2.73000000	     -3.13722061	     -1.75577124	      0.61514551	      0.57097911	      0.89253752	      1.47745726	     10.41098184	      4.27034160	    -14.90176030	    -22.08192846	     -0.38540236	     10.63211980	     -3.16811984	      1.09135532	     28.81936315	      5.43648082	      6.40208135	    -58.74670775	     -1.02532348	      9.92235747	     18.74603872	     18.34563195	     -4.14485160	      1.93511141	     -1.62902871	      2.08408449	     -9.91483243	    -11.78598126	     32.68362229	     89.95437384	      0.00000000	      0.00000000	     -0.36937749	      7.07375418	     16.80151612	     29.11335628	     89.95437384	      0.00000000	      0.00000000
      2.74000000	     -2.96048453	     -1.52683036	      0.55421103	      0.57654759	      0.89293443	      1.47779127	      9.78391546	      4.04681388	    -14.93337805	    -22.06892237	     -0.38517536	     10.91125517	     -2.99876013	      0.95521405	     29.02967124	      5.14190334	      6.55139485	    -56.93832561	     -0.99376125	     10.12683834	     18.74239251	     18.61473013	     -4.42570872	      1.67223948	     -1.41558277	      2.18882778	    -10.01180740	    -11.54948766	     33.20201502	     89.95437384	      0.00000000	      0.00000000	     -0.50694570	      7.01716302	     17.10230378	     28.93945729	     89.95437384	      0.00000000	      0.00000000
